{"title":"Mary Kom (2014) [1CD] DVDSCR Rip X.264 NeroAAC E.Sub TeamTNT","uid":11004600,"size":742872597,"categoryP":"video","categoryS":"movies","magnet":"?xt=urn:btih:5e2c9521f850d456e406d7e01d23aaac7c91eb02&amp;dn=Mary+Kom+%282014%29+%5B1CD%5D+DVDSCR+Rip+X.264+NeroAAC+E.Sub+TeamTNT&amp;tr=udp%3A%2F%2Ftracker.openbittorrent.com%3A80&amp;tr=udp%3A%2F%2Fopen.demonii.com%3A1337&amp;tr=udp%3A%2F%2Ftracker.coppersurfer.tk%3A6969&amp;tr=udp%3A%2F%2Fexodus.desync.com%3A6969","seeders":2,"leechers":0,"uploader":"inovai","files":22,"time":1410203835,"description":"Mary Kom (2014) [1CD] DVDSCR Rip X.264 NeroAAC E.Sub TeamTNT\n\nCover:\n  &lt;a href=&quot;\nhttp://forum.primetimeshow.in/viewtopic.php?f=7&amp;t=589&quot; rel=&quot;nofollow&quot; target=&quot;_NEW&quot;&gt;\nhttp://forum.primetimeshow.in/viewtopic.php?f=7&amp;t=589&lt;/a&gt;\n\nScreenshots:\n  &lt;a href=&quot;\nhttp://img.primetimeshow.in/share.php?id=DEC7_5409D4F8&quot; rel=&quot;nofollow&quot; target=&quot;_NEW&quot;&gt;\nhttp://img.primetimeshow.in/share.php?id=DEC7_5409D4F8&lt;/a&gt;\n  &lt;a href=&quot;\nhttp://img.primetimeshow.in/share.php?id=8B25_5409D4F8&quot; rel=&quot;nofollow&quot; target=&quot;_NEW&quot;&gt;\nhttp://img.primetimeshow.in/share.php?id=8B25_5409D4F8&lt;/a&gt;\n  &lt;a href=&quot;\nhttp://img.primetimeshow.in/share.php?id=F824_5409D4F8&quot; rel=&quot;nofollow&quot; target=&quot;_NEW&quot;&gt;\nhttp://img.primetimeshow.in/share.php?id=F824_5409D4F8&lt;/a&gt;\n  &lt;a href=&quot;\nhttp://img.primetimeshow.in/share.php?id=1479_5409D4F8&quot; rel=&quot;nofollow&quot; target=&quot;_NEW&quot;&gt;\nhttp://img.primetimeshow.in/share.php?id=1479_5409D4F8&lt;/a&gt;\n  &lt;a href=&quot;\nhttp://img.primetimeshow.in/share.php?id=FF00_5409D4F8&quot; rel=&quot;nofollow&quot; target=&quot;_NEW&quot;&gt;\nhttp://img.primetimeshow.in/share.php?id=FF00_5409D4F8&lt;/a&gt;\n\nMovie:............Mary Kom\nSource: ..........DVDSCR @ TeamTNT\nYear:.............2014\nSub:..............English\n\nGeneral\nComplete name : C:Mary Kom.mp4\nFormat : MPEG-4\nFormat profile : Base Media\nCodec ID : isom\nFile size : 704 MiB\nDuration : 2h 0mn\nOverall bit rate mode : Variable\nOverall bit rate : 818 Kbps\nEncoded date : UTC 2014-09-08 11:17:45\nTagged date : UTC 2014-09-08 11:17:45\n\nVideo\nID : 1\nFormat : AVC\nFormat/Info : Advanced Video Codec\nFormat profile : &lt;a class=&quot;__cf_email__&quot; href=&quot;/cdn-cgi/l/email-protection&quot; data-cfemail=&quot;f6be9f919eb6bac4d8c4&quot;&gt;[email&amp;#160;protected]&lt;/a&gt;&lt;script cf-hash='f9e31' type=&quot;text/javascript&quot;&gt;\n/* &lt;![CDATA[ */!function(){try{var t=&quot;currentScript&quot;in document?document.currentScript:function(){for(var t=document.getElementsByTagName(&quot;script&quot;),e=t.length;e--;)if(t[e].getAttribute(&quot;cf-hash&quot;))return t[e]}();if(t&amp;&amp;t.previousSibling){var e,r,n,i,c=t.previousSibling,a=c.getAttribute(&quot;data-cfemail&quot;);if(a){for(e=&quot;&quot;,r=parseInt(a.substr(0,2),16),n=2;a.length-n;n+=2)i=parseInt(a.substr(n,2),16)^r,e+=String.fromCharCode(i);e=document.createTextNode(e),c.parentNode.replaceChild(e,c)}}}catch(u){}}();/* ]]&gt; */&lt;/script&gt;\nFormat settings, CABAC : Yes\nFormat settings, ReFrames : 8 frames\nCodec ID : avc1\nCodec ID/Info : Advanced Video Coding\nDuration : 2h 0mn\nBit rate : 718 Kbps\nMaximum bit rate : 3 276 Kbps\nWidth : 640 pixels\nHeight : 256 pixels\nDisplay aspect ratio : 2.500\nFrame rate mode : Constant\nFrame rate : 29.970 fps\nColor space : YUV\nChroma subsampling : 4:2:0\nBit depth : 8 bits\nScan type : Progressive\nBits/(Pixel*Frame) : 0.146\nStream size : 618 MiB (88%)\nWriting library : x264 core 142 r2431 ac76440\nTagged date : UTC 2014-09-08 11:18:35\n\nAudio\nID : 2\nFormat : AAC\nFormat/Info : Advanced Audio Codec\nFormat profile : LC\nCodec ID : 40\nDuration : 2h 0mn\nBit rate mode : Variable\nBit rate : 96.0 Kbps\nMaximum bit rate : 101 Kbps\nChannel(s) : 2 channels\nChannel positions : Front: L R\nSampling rate : 48.0 KHz\nCompression mode : Lossy\nStream size : 82.6 MiB (12%)\nEncoded date : UTC 2014-09-08 05:43:00\nTagged date : UTC 2014-09-08 11:18:35\n\nThanks to TeamTNT!!\n\nSeed n Enjoy!!","torrent":{"xt":"urn:btih:5e2c9521f850d456e406d7e01d23aaac7c91eb02","amp;dn":"Mary+Kom+%282014%29+%5B1CD%5D+DVDSCR+Rip+X.264+NeroAAC+E.Sub+TeamTNT","amp;tr":["udp%3A%2F%2Ftracker.openbittorrent.com%3A80","udp%3A%2F%2Fopen.demonii.com%3A1337","udp%3A%2F%2Ftracker.coppersurfer.tk%3A6969","udp%3A%2F%2Fexodus.desync.com%3A6969"],"infoHash":"5e2c9521f850d456e406d7e01d23aaac7c91eb02","infoHashBuffer":{"type":"Buffer","data":[94,44,149,33,248,80,212,86,228,6,215,224,29,35,170,172,124,145,235,2]},"announce":[],"urlList":[]}}